# xmcd
#
# Track frame offsets: 
#        150
#        12060
#        26505
#        45476
#        61200
#        77227
#        93064
#        112571
#        127460
#        138499
#        151219
#        167235
#        179560
#        192812
#        206559
#        221362
#        238667
#        256315
#        269881
#        286891
#        304333
#        318641
#        332982
#
# Disc length: 4608 seconds
#
# Revision: 0
# Processed by: cddbd v1.5.2PL0 Copyright (c) Steve Scherf et al.
# Submitted via: ExactAudioCopy v0.95b2
#
DISCID=4e11fe17
DTITLE=Various Artist - 101 Country Hits (3)
DYEAR=2007
DGENRE=Country
TTITLE0=Dolly Parton - Jolene
TTITLE1=Jeannie C. Riley - Harper Valley PTA
TTITLE2=Bobbie Gentry - Ode To Billie Joe
TTITLE3=Kenny Rogers - The Gambler
TTITLE4=Nitty Gritty Dirt Band - Mr Bojangles
TTITLE5=The Band - The Night They Drove Old Dixie Down
TTITLE6=Kris Kristofferson - Me And Bobby McGee
TTITLE7=Elvis Presley - Kentucky Rain
TTITLE8=Roy Orbison - Blue Bayou
TTITLE9=Johnny Cash - Folsom Prison Blues
TTITLE10=Joe South - Games People Play
TTITLE11=Bobby Bare - Green, Green Grass Of Home
TTITLE12=Tammy Wynette - D.I.V.O.R.C.E.
TTITLE13=George Jones - A Good Year For The Roses
TTITLE14=Brooks and Dunn - The Long Goodbye
TTITLE15=Tim McGraw - When The Stars Go Blue
TTITLE16=Gretchen Peters - On A Bus To St. Cloud
TTITLE17=John Denver - Annie's Song
TTITLE18=Leann Rimes - I Need You
TTITLE19=The Judds - Love Can Build A Bridge
TTITLE20=Tanya Tucker - What's Your Mama's Name Child
TTITLE21=Hayseed Dixie - Strawbery Fields Forever
TTITLE22=Jerry Reed - East Bound And Down
EXTD=
EXTT0=
EXTT1=
EXTT2=
EXTT3=
EXTT4=
EXTT5=
EXTT6=
EXTT7=
EXTT8=
EXTT9=
EXTT10=
EXTT11=
EXTT12=
EXTT13=
EXTT14=
EXTT15=
EXTT16=
EXTT17=
EXTT18=
EXTT19=
EXTT20=
EXTT21=
EXTT22=
PLAYORDER=
